<svg id="visual" viewBox="0 0 16 9" width="16" height="9" xmlns="http://www.w3.org/2000/svg" xmlns:xlink="http://www.w3.org/1999/xlink" version="1.1"><rect x="0" y="0" width="16" height="9" fill="#000"></rect><path d="M0 2L0.3 2.2C0.7 2.3 1.3 2.7 2 3C2.7 3.3 3.3 3.7 4 3.5C4.7 3.3 5.3 2.7 6 2.5C6.7 2.3 7.3 2.7 8 2.8C8.7 3 9.3 3 10 2.8C10.7 2.7 11.3 2.3 12 2.3C12.7 2.3 13.3 2.7 14 3C14.7 3.3 15.3 3.7 15.7 3.8L16 4L16 10L15.7 10C15.3 10 14.7 10 14 10C13.3 10 12.7 10 12 10C11.3 10 10.7 10 10 10C9.3 10 8.7 10 8 10C7.3 10 6.7 10 6 10C5.3 10 4.7 10 4 10C3.3 10 2.7 10 2 10C1.3 10 0.7 10 0.3 10L0 10Z" fill="#111510"></path><path d="M0 3L0.3 3.2C0.7 3.3 1.3 3.7 2 3.8C2.7 4 3.3 4 4 3.8C4.7 3.7 5.3 3.3 6 3.2C6.7 3 7.3 3 8 3C8.7 3 9.3 3 10 3C10.7 3 11.3 3 12 3C12.7 3 13.3 3 14 3.2C14.7 3.3 15.3 3.7 15.7 3.8L16 4L16 10L15.7 10C15.3 10 14.7 10 14 10C13.3 10 12.7 10 12 10C11.3 10 10.7 10 10 10C9.3 10 8.7 10 8 10C7.3 10 6.7 10 6 10C5.3 10 4.7 10 4 10C3.3 10 2.7 10 2 10C1.3 10 0.7 10 0.3 10L0 10Z" fill="#1a2819"></path><path d="M0 3L0.3 3.2C0.7 3.3 1.3 3.7 2 3.8C2.7 4 3.3 4 4 4.2C4.7 4.3 5.3 4.7 6 4.8C6.7 5 7.3 5 8 5C8.7 5 9.3 5 10 4.8C10.7 4.7 11.3 4.3 12 4C12.7 3.7 13.3 3.3 14 3.3C14.7 3.3 15.3 3.7 15.7 3.8L16 4L16 10L15.7 10C15.3 10 14.7 10 14 10C13.3 10 12.7 10 12 10C11.3 10 10.7 10 10 10C9.3 10 8.7 10 8 10C7.3 10 6.7 10 6 10C5.3 10 4.7 10 4 10C3.3 10 2.7 10 2 10C1.3 10 0.7 10 0.3 10L0 10Z" fill="#213b21"></path><path d="M0 4L0.3 4.2C0.7 4.3 1.3 4.7 2 4.8C2.7 5 3.3 5 4 4.8C4.7 4.7 5.3 4.3 6 4.3C6.7 4.3 7.3 4.7 8 4.8C8.7 5 9.3 5 10 5C10.7 5 11.3 5 12 5C12.7 5 13.3 5 14 4.8C14.7 4.7 15.3 4.3 15.7 4.2L16 4L16 10L15.7 10C15.3 10 14.7 10 14 10C13.3 10 12.7 10 12 10C11.3 10 10.7 10 10 10C9.3 10 8.7 10 8 10C7.3 10 6.7 10 6 10C5.3 10 4.7 10 4 10C3.3 10 2.7 10 2 10C1.3 10 0.7 10 0.3 10L0 10Z" fill="#27502a"></path><path d="M0 6L0.3 5.8C0.7 5.7 1.3 5.3 2 5.2C2.7 5 3.3 5 4 5C4.7 5 5.3 5 6 5.2C6.7 5.3 7.3 5.7 8 5.5C8.7 5.3 9.3 4.7 10 4.5C10.7 4.3 11.3 4.7 12 5C12.7 5.3 13.3 5.7 14 5.7C14.7 5.7 15.3 5.3 15.7 5.2L16 5L16 10L15.7 10C15.3 10 14.7 10 14 10C13.3 10 12.7 10 12 10C11.3 10 10.7 10 10 10C9.3 10 8.7 10 8 10C7.3 10 6.7 10 6 10C5.3 10 4.7 10 4 10C3.3 10 2.7 10 2 10C1.3 10 0.7 10 0.3 10L0 10Z" fill="#2c6633"></path><path d="M0 5L0.3 5.2C0.7 5.3 1.3 5.7 2 5.7C2.7 5.7 3.3 5.3 4 5.2C4.7 5 5.3 5 6 5.2C6.7 5.3 7.3 5.7 8 5.8C8.7 6 9.3 6 10 6C10.7 6 11.3 6 12 5.8C12.7 5.7 13.3 5.3 14 5.2C14.7 5 15.3 5 15.7 5L16 5L16 10L15.7 10C15.3 10 14.7 10 14 10C13.3 10 12.7 10 12 10C11.3 10 10.7 10 10 10C9.3 10 8.7 10 8 10C7.3 10 6.7 10 6 10C5.3 10 4.7 10 4 10C3.3 10 2.7 10 2 10C1.3 10 0.7 10 0.3 10L0 10Z" fill="#2f7d3d"></path><path d="M0 6L0.3 6.2C0.7 6.3 1.3 6.7 2 6.7C2.7 6.7 3.3 6.3 4 6.2C4.7 6 5.3 6 6 6C6.7 6 7.3 6 8 6C8.7 6 9.3 6 10 6C10.7 6 11.3 6 12 6C12.7 6 13.3 6 14 6C14.7 6 15.3 6 15.7 6L16 6L16 10L15.7 10C15.3 10 14.7 10 14 10C13.3 10 12.7 10 12 10C11.3 10 10.7 10 10 10C9.3 10 8.7 10 8 10C7.3 10 6.7 10 6 10C5.3 10 4.7 10 4 10C3.3 10 2.7 10 2 10C1.3 10 0.7 10 0.3 10L0 10Z" fill="#2f9447"></path><path d="M0 7L0.3 7C0.7 7 1.3 7 2 6.8C2.7 6.7 3.3 6.3 4 6.3C4.7 6.3 5.3 6.7 6 6.7C6.7 6.7 7.3 6.3 8 6.2C8.7 6 9.3 6 10 6C10.7 6 11.3 6 12 6C12.7 6 13.3 6 14 6.2C14.7 6.3 15.3 6.7 15.7 6.8L16 7L16 10L15.7 10C15.3 10 14.7 10 14 10C13.3 10 12.7 10 12 10C11.3 10 10.7 10 10 10C9.3 10 8.7 10 8 10C7.3 10 6.7 10 6 10C5.3 10 4.7 10 4 10C3.3 10 2.7 10 2 10C1.3 10 0.7 10 0.3 10L0 10Z" fill="#2bac52"></path><path d="M0 7L0.3 7C0.7 7 1.3 7 2 7C2.7 7 3.3 7 4 7.2C4.7 7.3 5.3 7.7 6 7.8C6.7 8 7.3 8 8 7.8C8.7 7.7 9.3 7.3 10 7.2C10.7 7 11.3 7 12 7C12.7 7 13.3 7 14 7C14.7 7 15.3 7 15.7 7L16 7L16 10L15.7 10C15.3 10 14.7 10 14 10C13.3 10 12.7 10 12 10C11.3 10 10.7 10 10 10C9.3 10 8.7 10 8 10C7.3 10 6.7 10 6 10C5.3 10 4.7 10 4 10C3.3 10 2.7 10 2 10C1.3 10 0.7 10 0.3 10L0 10Z" fill="#22c55e"></path></svg>